<?xml version="1.0" encoding="utf-8"?>
<!-- Generator: Adobe Illustrator 15.0.2, SVG Export Plug-In  -->
<!DOCTYPE svg PUBLIC "-//W3C//DTD SVG 1.1//EN" "http://www.w3.org/Graphics/SVG/1.1/DTD/svg11.dtd" [
	<!ENTITY ns_flows "http://ns.adobe.com/Flows/1.0/">
]>
<svg version="1.1"
	 xmlns="http://www.w3.org/2000/svg" xmlns:xlink="http://www.w3.org/1999/xlink" xmlns:a="http://ns.adobe.com/AdobeSVGViewerExtensions/3.0/"
	 x="0px" y="0px" width="737px" height="227px" viewBox="-0.294 -0.588 737 227"
	 overflow="visible" enable-background="new -0.294 -0.588 737 227" xml:space="preserve">
<defs>
</defs>
<g>
	<path d="M8.8,37.399h53.999c43,0,45.2,34,45.2,71.399c0,37.398-2.2,71.398-45.2,71.398H8.8V37.399z M46,153.397h7.4
		c14.399,0,16.2-5.999,16.2-44.599c0-38.6-1.8-44.6-16.2-44.6H46V153.397z"/>
	<path d="M148.4,37.399h46.799l34.799,142.798h-39.6l-3.8-25H157l-3.8,25h-39.6L148.4,37.399z M139,0h26.799v28H139V0z M172,66.599
		h-0.4l-10.2,60.599h20.8L172,66.599z M175.399,0h26.799v28h-26.799V0z"/>
	<path d="M241.2,37.399h41.599l24,87.999h0.4V37.399h34.799v142.798h-40.799l-24.8-88.199h-0.4v88.199H241.2V37.399z"/>
	<path d="M364.599,37.399h84.599v30.399h-47.399v24.4h44.399v29.2h-44.399v28.399h49.199v30.399h-86.398V37.399z"/>
	<path d="M469.599,37.399h41.6l23.999,87.999h0.4V37.399h34.8v142.798h-40.8l-24.8-88.199h-0.399v88.199h-34.8V37.399z"/>
</g>
<rect x="594.706" y="37.304" fill="#0A2140" width="141.895" height="188.637"/>
<path fill="#FFFFFF" d="M713.507,178.815h-9.801v23.201c0,3.8-0.8,4-4.199,4h-26.4c-3.8,0-4.2-0.601-4.2-4v-23.201h-53
	c-3.4,0-4.2-0.799-4.2-4.199v-26.2l52.601-81.8c2-3,2-3.2,5.399-1.8l25.4,10c3.8,1.4,4.2,2.6,2,5.6l-50.2,68.601h23l4.4-25.201
	c0.6-3.399,0.8-4,4.199-4h21.001c3.399,0,4.199,0.801,4.199,4.201v25.199h9.801c3.8,0,4.199,0.4,4.199,5v20.4
	C717.706,178.017,717.307,178.815,713.507,178.815z"/>
</svg>
